<svg xmlns="http://www.w3.org/2000/svg" viewBox="0 0 240.77 270"><title>javarayslogo</title><g id="Layer_5" data-name="Layer 5"><path d="M576.68,227.77v.06c-.32,62.27-33,92.14-33,92.14-26.52,24.21-60.32,24.21-68.26,24.21s-41.73,0-68.25-24.21c0,0-32.7-29.87-33-92.14v-.06a7.68,7.68,0,0,1,5-7.16,276,276,0,0,1,30.69-9.43,85.84,85.84,0,0,0-12,17.86,84.6,84.6,0,0,0-6.11,16.07c4.15,1.11,8.62,2.22,13.38,3.28a322.79,322.79,0,0,0,73.63,7.73,323.3,323.3,0,0,0,68.15-8h0c4.29-1,8.35-2,12.15-3A83.68,83.68,0,0,0,553,229a85,85,0,0,0-12-17.86,271.57,271.57,0,0,1,30.67,9.43A7.68,7.68,0,0,1,576.68,227.77Z" transform="translate(-353.4 -98)" fill="none" stroke="#f37c48" stroke-miterlimit="10" stroke-width="8"/><path d="M391.74,245.11c4.15,1.11,8.62,2.22,13.38,3.28-15.81-2.75-26.53-6.28-26.59-10,0-3.15,7.46-6.45,19.32-9.33A84.6,84.6,0,0,0,391.74,245.11Z" transform="translate(-353.4 -98)" fill="none" stroke="#f37c48" stroke-miterlimit="10" stroke-width="8"/><path d="M572.28,238.37c-.07,3.65-10.32,7.06-25.36,9.75,4.29-1,8.35-2,12.15-3A83.68,83.68,0,0,0,553,229C564.83,231.92,572.33,235.23,572.28,238.37Z" transform="translate(-353.4 -98)" fill="none" stroke="#f37c48" stroke-miterlimit="10" stroke-width="8"/><path d="M427.69,339.81l-1.89,5.67a4.18,4.18,0,0,0,1.78,4.89,93,93,0,0,0,93.22,2.16,4.19,4.19,0,0,0,2-5c-.64-1.91-1.28-3.81-1.91-5.72a4.17,4.17,0,0,0-5.44-2.6,107.88,107.88,0,0,1-82.08-1.91A4.18,4.18,0,0,0,427.69,339.81Z" transform="translate(-353.4 -98)" fill="none" stroke="#f37c48" stroke-miterlimit="10" stroke-width="8"/></g><g id="Layer_6" data-name="Layer 6"><path d="M411.29,210.83a87.56,87.56,0,0,0-12.64,18l-.8.19a85.84,85.84,0,0,1,12-17.86Z" transform="translate(-353.4 -98)" fill="none" stroke="#f6d673" stroke-miterlimit="10" stroke-width="8"/><path d="M553,229l-.73-.18q-1-1.87-2.23-3.86a86,86,0,0,0-10.94-14.29l1.94.47A85,85,0,0,1,553,229Z" transform="translate(-353.4 -98)" fill="none" stroke="#f6d673" stroke-miterlimit="10" stroke-width="8"/><path d="M541,211.18l-1.94-.47A92.08,92.08,0,0,0,505,188a87.78,87.78,0,0,0-39-5c-27.92,2.95-45.71,18.87-51,24-1.31,1.27-2.54,2.55-3.71,3.83l-1.46.35a86.83,86.83,0,0,1,131.17,0Z" transform="translate(-353.4 -98)" fill="#fff" stroke="#f6d673" stroke-miterlimit="10" stroke-width="8"/><line x1="122" y1="4" x2="122" y2="32.62" fill="none" stroke="#f6d673" stroke-linecap="round" stroke-linejoin="round" stroke-width="8"/><line x1="193.77" y1="25.8" x2="173.53" y2="46.04" fill="none" stroke="#f6d673" stroke-linecap="round" stroke-linejoin="round" stroke-width="8"/><line x1="236.77" y1="70.79" x2="209.78" y2="80.32" fill="none" stroke="#f6d673" stroke-linecap="round" stroke-linejoin="round" stroke-width="8"/><line x1="47" y1="25.8" x2="67.24" y2="46.04" fill="none" stroke="#f6d673" stroke-linecap="round" stroke-linejoin="round" stroke-width="8"/><line x1="4" y1="70.79" x2="30.99" y2="80.32" fill="none" stroke="#f6d673" stroke-linecap="round" stroke-linejoin="round" stroke-width="8"/><path d="M552.23,228.86A87.86,87.86,0,0,1,558,242" transform="translate(-353.4 -98)" fill="none" stroke="#f6d673" stroke-miterlimit="10" stroke-width="8"/><path d="M398.65,228.85A91.19,91.19,0,0,0,393,242" transform="translate(-353.4 -98)" fill="none" stroke="#f6d673" stroke-miterlimit="10" stroke-width="8"/></g><g id="Layer_7" data-name="Layer 7"><ellipse cx="113.19" cy="98.67" rx="4.4" ry="2.2" fill="none" stroke="#f37c48" stroke-miterlimit="10" stroke-width="2"/><ellipse cx="145.12" cy="108.58" rx="4.4" ry="2.2" fill="none" stroke="#f37c48" stroke-miterlimit="10" stroke-width="2"/><ellipse cx="75.77" cy="129.5" rx="4.4" ry="2.2" fill="none" stroke="#f37c48" stroke-miterlimit="10" stroke-width="2"/><ellipse cx="90.08" cy="112.98" rx="4.4" ry="2.2" fill="none" stroke="#f37c48" stroke-miterlimit="10" stroke-width="2"/><ellipse cx="124.2" cy="127.29" rx="4.4" ry="2.2" fill="none" stroke="#f37c48" stroke-miterlimit="10" stroke-width="2"/><ellipse cx="156.13" cy="137.2" rx="4.4" ry="2.2" fill="none" stroke="#f37c48" stroke-miterlimit="10" stroke-width="2"/><ellipse cx="171.54" cy="121.79" rx="4.4" ry="2.2" fill="none" stroke="#f37c48" stroke-miterlimit="10" stroke-width="2"/></g></svg>